<svg xmlns="http://www.w3.org/2000/svg" xmlns:xlink="http://www.w3.org/1999/xlink" viewBox="0 0 66 31" fill="#fff" fill-rule="evenodd" stroke="#000" stroke-linecap="round" stroke-linejoin="round"><use xlink:href="#A" x=".5" y=".5"/><symbol id="A" overflow="visible"><path d="M4.852 14.867c0 5.454 4.437 9.892 9.892 9.892h9.24c.58 0 1.03-.552 1.03-1.027V5.615a2.08 2.08 0 0 1 2.076-2.077c.734 0 1.42.4 1.786 1.017l11.606 20.012a.864.864 0 0 0 1.601-.448V5.615a2.08 2.08 0 0 1 2.076-2.077 2.07 2.07 0 0 1 1.785 1.017l11.6 20.012a.864.864 0 0 0 1.601-.448v-24h-3.642v14.28L48.7 2.687C47.737 1.04 45.9 0 43.966 0a5.52 5.52 0 0 0-5.515 5.516v8.894L31.628 2.687C30.665 1.04 28.828 0 26.894 0a5.52 5.52 0 0 0-5.515 5.516v14.615c.002.532-.398.995-.98.997h-5.616a6.25 6.25 0 1 1 0-12.5h4.705v-3.64h-4.744c-5.454 0-9.892 4.437-9.892 9.892M60.358.13v24a2.08 2.08 0 0 1-2.076 2.077c-.734 0-1.42-.4-1.786-1.016l-11.6-20a.864.864 0 0 0-1.601.447v18.505a2.08 2.08 0 0 1-2.077 2.077 2.1 2.1 0 0 1-1.786-1.016L27.828 5.167a.864.864 0 0 0-1.601.447v18.127c0 1.193-1.05 2.24-2.244 2.24h-9.24c-6.13-.008-11.097-4.975-11.105-11.105.008-6.13 4.976-11.098 11.106-11.106h4.743V.127h-4.74C6.602.129.001 6.731 0 14.876s6.603 14.747 14.748 14.748h9.328c3.534.002 5.806-2.07 5.8-5.887v-8.412L36.7 27.047a5.515 5.515 0 0 0 10.249-2.828v-8.894l6.8 11.722a5.53 5.53 0 0 0 4.734 2.687A5.52 5.52 0 0 0 64 24.219V.127z" stroke="none" fill="#c00" fill-rule="nonzero"/></symbol></svg>