<svg xmlns="http://www.w3.org/2000/svg" xmlns:xlink="http://www.w3.org/1999/xlink" viewBox="0 0 66 36" fill="#fff" fill-rule="evenodd" stroke="#000" stroke-linecap="round" stroke-linejoin="round"><use xlink:href="#A" x=".5" y=".5"></use><symbol id="A" overflow="visible"><path d="M10.936.116V.8l.635.146c.976.244 1.123.83 1.513 2.685L14.1 8.846l-2.832 15.233-3.857-19.14c-.44-2.1-.586-3.662.977-4.004L9.12.789V.116H0V.8l.928.245c.928.244 1.318.683 1.953 3.564l6.2 29.343h1.6l4.15-22.166 4.6 22.166h1.27l5.957-28.436c.684-3.27.977-4.2 2.15-4.5l.927-.245V.116h-6.7V.8l1.025.195c1.465.293 1.806 1.22 1.122 4.98L21.53 24.079l-3.7-19.14c-.4-1.904-.635-3.662.977-3.955l1.074-.195V.105zM54.38.208v.684l1.22.293c1.073.244 1.513.635 1.513 2.002v23.68c0 2.636 0 6.103-2.735 6.103-1.562 0-2.78-1.367-2.684-2.295.097-1.513 2.734-1.416 2.88-3.857.147-1.7-.928-2.5-2.002-2.637-1.513-.195-3.368 1.074-3.418 3.613-.048 3.27 2.1 6.248 5.76 6.248 4.05 0 6.7-2.732 6.7-7.957l.001-22.85c0-1.367.342-1.807 1.318-2.05L64 .881V.197zM37.93 0c-4.15 0-6.493 3.467-6.493 8.007 0 8.447 10.888 11.718 10.888 19.335 0 3.613-1.514 5.614-3.7 5.614-3.27 0-5.615-3.953-6.2-10.252h-.732v11.132h.586c.488-1.6 1.123-1.757 1.66-1.757.928 0 1.903 1.95 4.735 1.95 4.345 0 7.176-3.758 7.178-8.936 0-10.155-10.888-12.645-10.888-19.92 0-1.66.488-4.1 2.93-4.1 3.516 0 5.03 4.638 5.615 10.253h.732V.196h-.586c-.244 1.074-.683 1.562-1.318 1.562-1.123 0-1.7-1.757-4.394-1.757zm7.86 9.575v.12l.023-.014-.012-.1z" stroke="none" fill="#000" fill-rule="nonzero"></path></symbol></svg>