<svg xmlns="http://www.w3.org/2000/svg" xmlns:xlink="http://www.w3.org/1999/xlink" viewBox="0 0 108 22" fill="#fff" fill-rule="evenodd" stroke="#000" stroke-linecap="round" stroke-linejoin="round"><use xlink:href="#A" x=".5" y=".5"/><symbol id="A" overflow="visible"><path d="M53.593 18.604c0 .37 0 .452.25.68l1.392 1.374v.06h-6.172v-2.64a4.29 4.29 0 0 1-4.093 2.865c-3.173 0-5.476-2.513-5.476-7.137 0-4.33 2.485-7.22 5.973-7.22 1.546-.098 2.985.802 3.587 2.245V3.01c.046-.27-.063-.542-.282-.704l-1.326-1.3v-.06l6.147-.73zm-4.532-.838V9.07a2.3 2.3 0 0 0-1.839-.871c-1.5 0-2.95 1.374-2.95 5.453 0 3.82 1.25 5.17 2.808 5.17a2.43 2.43 0 0 0 1.98-1.064zm8.624 2.95V8.986a.79.79 0 0 0-.25-.704l-1.367-1.424v-.06h6.172v11.895c0 .37 0 .452.25.68l1.36 1.3v.06zm-.224-18.203A2.5 2.5 0 0 1 59.946 0a2.5 2.5 0 0 1 2.485 2.513 2.5 2.5 0 0 1-2.485 2.513 2.5 2.5 0 0 1-2.485-2.513zM78.895 18.57c0 .37 0 .477.25.704l1.392 1.374v.06h-6.205V17.71a4.51 4.51 0 0 1-4.25 3.233c-2.75 0-4.225-2.027-4.225-5.864l.058-6.157a.72.72 0 0 0-.25-.68L64.298 6.86V6.8h6.122v7.648c0 2.513.365 4.188 1.922 4.188a2.47 2.47 0 0 0 2.005-1.265V8.994a.79.79 0 0 0-.25-.704l-1.375-1.432v-.06h6.172zm21 2.136l.083-7.54c0-2.513-.4-4.247-2.137-4.247-.88.027-1.694.475-2.195 1.206a10.33 10.33 0 0 1 .249 2.387l-.083 6.182a.72.72 0 0 0 .25.68l1.392 1.3v.06h-6.23l.083-7.54c0-2.555-.4-4.247-2.113-4.247a2.48 2.48 0 0 0-2.055 1.24v8.544c0 .37 0 .452.25.68l1.36 1.3v.06h-6.164V9.03a.79.79 0 0 0-.25-.704l-1.36-1.456v-.06h6.172v2.982c.572-1.97 2.396-3.292 4.424-3.208 2.055 0 3.446 1.156 4.035 3.35.653-2.024 2.534-3.382 4.64-3.35 2.75 0 4.308 2.052 4.308 5.93l-.083 6.182c-.048.263.062.53.282.68l1.36 1.3v.06zM22.369 18.89l1.83 1.768v.06h-9.287v-.06l1.864-1.768a.72.72 0 0 0 .25-.68V6.91c0-.477 0-1.123.083-1.675L10.855 20.94h-.075L4.293 6.49l-.273-.628v9.474a3.32 3.32 0 0 0 .307 1.85l2.6 3.468v.06H0v-.06l2.6-3.476c.276-.572.382-1.212.307-1.843V4.865c.042-.516-.112-1.028-.43-1.432L.63 1.013v-.06h6.628l5.55 12.24L17.696.953h6.487v.06L22.36 3.065c-.218.16-.328.434-.282.704v14.44c-.048.263.062.53.282.68zm7.266-5.663v.06c0 3.585 1.83 5.026 3.977 5.026a4.51 4.51 0 0 0 4.225-2.588h.058c-.746 3.543-2.916 5.22-6.164 5.22-3.504 0-6.8-2.136-6.8-7.087 0-5.202 3.314-7.28 6.976-7.28 2.95 0 6.1 1.407 6.1 5.93v.72zm0-.72h4.084v-.73c0-3.686-.754-4.666-1.9-4.666-1.375 0-2.212 1.466-2.212 5.395z" stroke="none" fill="#1c1b1a" fill-rule="nonzero"/></symbol></svg>