<svg xmlns="http://www.w3.org/2000/svg" xmlns:xlink="http://www.w3.org/1999/xlink" viewBox="0 0 296 42" fill="#fff" fill-rule="evenodd" stroke="#000" stroke-linecap="round" stroke-linejoin="round"><use xlink:href="#A" x=".5" y=".5"/><symbol id="A" overflow="visible"><g stroke="none" fill="#000" fill-rule="nonzero"><path d="M8.661 22.205V11.417l-3.543 1.417s-.866 1.811-.709 4.488c.079 2.126 1.339 4.567 2.283 5.669zM18.189 0c.787.079 2.126.472 3.071 1.26 1.024.945 1.26 2.441.945 3.78-.315 1.181-.709 1.811-1.968 2.677s-2.205.945-2.205.945v5.197l2.441 1.89-2.441 2.205v7.087s2.047-1.654 3.622-4.882c0 0 .079-.157.236-.551.157.866.079 2.677-.945 4.882-.787 1.732-2.126 3.307-3.937 4.252-3.071 1.654-5.433 1.811-7.874 1.339-2.913-.551-5.591-2.126-7.323-4.882C.551 23.228 0 21.024 0 18.583.079 13.78 3.78 9.685 8.032 8.11c.551-.157.709-.315 1.417-.394-.315.236-.709.472-1.181.787-1.339.866-2.52 2.598-3.071 3.937l8.189-3.543V20L6.85 23.228c.787 1.024 3.071 2.52 5.039 2.756 3.307.394 5.512-.866 5.512-.866v-7.244l-2.441-2.126 2.441-1.89V8.661c-1.417-.157-3.386-.787-4.331-1.024-1.496-.315-6.378-1.654-7.165-1.811-.787-.079-1.732-.079-2.283.394s-.945 1.417-.709 2.205c.157.472.472.709.709.945 0 0-.315 0-.787-.315-.945-.551-1.654-1.575-1.732-2.913A4.88 4.88 0 0 1 3.15 1.89C4.409 1.102 5.827.63 7.48.866c2.441.315 5.669 1.654 8.583 2.362 1.102.236 1.968.315 2.756-.079.394-.236 1.024-.945.472-1.811C18.661.315 17.48.315 16.457.158 17.402 0 17.559 0 18.189 0m32.047 19.37l-3.78 2.677v-8.819zm-.157-8.504l-4.173 2.441-3.937 2.047V25.59l-1.496 1.181.236.236 1.496-1.181 4.646 4.016 8.032-6.142-.157-.236-4.488 3.386-3.78-3.228v-1.26l7.323-5.197z"/><path d="M28.976 33.858c1.024.236 2.913.394 5.197-.709 2.52-1.181 3.465-3.78 3.465-6.378l.079-3.701v-8.189l1.575-1.181-.157-.236-1.575 1.181-3.386-3.937-5.197 3.858V1.496l-5.276 4.331c.236.157 1.417.315 1.417 1.417V25.59l-2.756 1.732.158.236 1.181-.866 3.307 2.992 5.197-4.016-.157-.236-1.26.945-1.732-1.181V14.961l2.047-1.26 2.835 2.913v8.819c0 2.362-.63 5.118-1.89 6.535s-1.732 1.496-3.071 1.89m36.063-.945c-2.047-.236-2.913-1.417-2.913-2.441 0-.63.63-1.811 1.89-1.968s2.52.394 3.622 1.654l4.803-5.118-.236-.236-1.26 1.417c-1.339-1.417-2.913-2.362-4.803-2.598V7.952l12.205 21.969s.315.236.866.236c.472 0 .315-.315.315-.315V7.716c1.024 0 2.362-.551 3.15-1.339 2.362-2.362 1.417-4.961 1.181-5.276-.157 1.102-1.024 2.283-2.52 2.283-1.969 0-3.15-1.417-3.15-1.417l-4.961 5.354.236.236 1.339-1.496c1.654 1.496 2.598 1.654 3.858 1.732V20.63l-8.898-16.3c-.866-1.339-2.126-2.52-4.094-2.52-2.283 0-3.937 1.969-4.173 3.622-.236 1.89 0 2.362 0 2.362s.315-2.126 1.654-2.126c1.181 0 1.575.63 2.126 1.417v5.197c-1.26.079-4.252.236-4.488 3.543 0 1.26.787 2.52 1.496 2.913.866.551 1.575.551 1.575.551s-1.024-.551-.709-1.654c.315-.945 2.126-1.102 2.205-.709v6.614c-1.024 0-3.937.079-5.433 2.756-.866 1.575-.787 3.386.079 4.646.787 1.102 2.362 2.441 5.039 1.968m26.455-13.54l-4.094 2.677v-8.819zm-.157-8.504l-4.252 2.441-3.701 2.047V25.59l-1.496 1.181.236.236 1.496-1.181 4.331 4.016 8.031-6.142-.157-.236-4.488 3.386-3.622-3.307v-1.26l7.323-5.197zm11.338 19.213l-3.937-3.15-1.732 1.181-.157-.236 1.732-1.26v-8.898c.079-3.622-3.465-2.756-3.228-6.614.079-1.732 1.811-2.992 2.677-3.386.945-.472 1.89-.472 1.89-.472s-1.654.945-1.26 2.362c.63 2.205 4.409 2.362 4.488 5.276v10.079l2.441 2.205.709-.551V15.669l-1.102-1.496 3.937-3.386 3.622 3.071-1.654 1.417v9.685l3.622 2.677.63-.394V15.669l-1.496-1.417 3.937-3.465 3.701 2.913 1.496-1.26.157.236-3.307 2.835v9.449L111.417 30l-4.331-3.228zm173.15-10.709l-4.173 2.677v-8.819zm-.079-8.504l-4.252 2.441-3.858 2.047V25.59l-1.654 1.181.236.236 1.496-1.181 4.646 4.016 8.032-6.142-.157-.236-4.488 3.386-3.701-3.307v-1.26l7.323-5.197zm-27.716 3.859l.866-.709 2.284 2.835v8.425l-.709.945 3.307 3.543 3.543-3.386-1.417-1.339V14.804l1.024-.787 2.913 2.756v8.425l-1.181.787 3.701 3.858 4.882-4.331-.236-.236-1.181 1.024-2.047-1.89v-9.606l1.969-1.339-.158-.236-1.811 1.339-3.307-3.622-4.724 3.622-3.386-3.465-4.567 3.465-3.386-3.465-4.882 4.094.157.236 1.575-1.26 2.205 2.441v8.504l-1.102.945 3.543 3.858 3.622-3.465-1.496-1.496zm-6.85 11.102l-.157-.236-1.417 1.181-1.89-2.126v-9.528l1.654-1.339-.236-.236-1.575 1.339-3.386-3.858-5.039 3.937.63.157 1.26-1.024 2.047 2.283v9.685l-1.417 1.181.157.236 1.496-1.26 3.228 3.622zM234.41 3.78l2.835 3.071-3.543 3.071-2.835-2.992zm-19.292 18.425V11.417l-3.307 1.417s-.866 1.811-.709 4.488c.079 2.126 1.339 4.567 2.284 5.669zM224.567 0c.866.079 2.126.472 3.071 1.26 1.024.945 1.26 2.441.945 3.78-.315 1.181-.709 1.811-1.968 2.677s-2.205.787-2.205.787v5.197l2.362 2.047-2.362 2.047v7.008s1.969-1.417 3.622-4.646c0 0 .079-.157.236-.551.157.866.079 2.677-.945 4.882-.787 1.732-2.126 3.307-3.937 4.252-3.071 1.654-5.433 1.811-7.874 1.339-2.913-.551-5.591-2.126-7.323-4.882-1.26-1.968-1.811-4.173-1.811-6.614.079-4.803 3.78-8.898 8.031-10.472.473-.157.709-.315 1.417-.394-.315.236-.709.472-1.181.787-1.339.866-2.52 2.598-3.071 3.937l8.11-3.386v11.102l-6.457 3.071c.787 1.024 3.071 2.52 5.039 2.756 3.307.394 5.433-1.024 5.433-1.024v-7.244l-2.362-2.047 2.362-2.047V8.425c-1.417-.158-3.228-.63-4.252-.866-1.496-.315-6.378-1.654-7.165-1.811-.787-.079-1.732-.079-2.283.394s-.945 1.417-.709 2.205c.158.472.473.709.709.945 0 0-.315 0-.787-.315-.945-.551-1.654-1.575-1.732-2.913a4.88 4.88 0 0 1 2.047-4.252c1.26-.787 2.677-1.26 4.331-1.024 2.441.315 5.669 1.654 8.583 2.362 1.102.236 1.968.315 2.756-.079.394-.236 1.024-.945.472-1.811-.63-1.024-1.811-1.024-2.835-1.181C223.701 0 223.937 0 224.567 0m61.26 12.914v5.118l2.205 1.496s3.78-2.992 5.197-5.669c0 0-1.732 2.283-4.016 1.575-1.969-.551-2.913-2.441-2.913-2.441m-4.331 13.386s1.654-2.677 4.567-2.126c2.756.551 4.016 3.386 4.016 3.386v-6.457l-2.284-1.575c-2.047 2.047-5.827 4.961-6.299 6.772m2.756 4.882c-.551.158-2.835-.394-3.386-2.756-.551-2.283 1.102-3.78 3.543-6.221l-2.913-2.598v-4.882l3.78-2.047 3.386-2.126s1.26 1.496 2.677 1.417c2.205-.157 2.126-1.89 2.047-2.283.394.63 1.417 2.598-2.52 6.929l3.15 2.441v6.378s-3.622 1.811-7.165 4.331c0 0-1.969-2.362-3.622-1.26-1.102.866-.551 2.126 1.024 2.677m-127.245-7.246l4.094 3.543V16.692l-4.094-3.622zm8.74-8.898l1.417-1.26.236.236-1.732 1.26V25.51l-4.094 2.362-3.779 2.205-4.803-3.937-1.26 1.102-.236-.236 1.654-1.102V14.881h-.236l4.173-2.047 3.622-2.047zm9.527-1.023l3.071-3.071s.394.394.787.551c.236.079 1.181.551 1.968.079.472-.236.551-.315 1.024-.787.079 2.362-1.102 4.016-2.52 4.724-.63.315-2.677.787-4.567-1.339v10.945l2.283 1.654 1.653-1.26.158.236-5.039 4.094-3.858-3.386-1.417 1.26-.236-.236 1.732-1.811v-9.37l-1.26-2.047-1.417 1.181-.236-.236 4.882-4.252z"/><path d="M188.662 18.662l5.669-7.953a4.49 4.49 0 0 0 2.047 1.181c1.732.472 3.307-1.181 3.307-1.181-.315 2.126-1.417 4.567-3.701 4.961-2.047.315-3.937-1.181-3.937-1.181l-.394.551 7.874 11.496 1.575-1.339.236.236L195.906 30zm-4.41-10.71c0-1.732-1.024-2.756-1.968-2.677l5.906-4.173v23.78l1.89 1.654 1.26-1.024.236.236-4.961 4.173-3.386-3.071-1.339 1.181-.236-.236 2.677-1.968V7.952zm-40 6.693s-.709.787-1.732.787c-1.102 0-1.575-.787-1.575-.787v3.228s.472-.787 1.575-.787 1.732.709 1.732.709zm-.157-6.929l-1.969-2.047-1.181.866v7.638s.709.866 1.811.866 1.339-.866 1.339-.866zm-3.15 21.575s1.417.394 2.52-.472c1.181-.945.63-2.205.63-2.205v-8.189s-.315-.866-1.339-.866c-1.102 0-1.811.866-1.811.866zm-8.661-21.732c0-1.575-.709-2.52-1.732-2.52-1.575 0-1.968 2.126-1.968 2.126s-.315-1.654 1.181-3.15c.787-.866 2.283-2.047 4.646-1.496 2.441.551 3.386 2.362 3.386 4.016v22.126c.415.101.836.18 1.26.236.709.158 1.102.315 1.102.315V2.598h.787V6.22l4.803-3.858 3.622 3.15 1.732-1.417.157.236-1.732 1.496v20.551c-.079 1.339-.315 2.677-1.654 3.465-2.913 1.654-6.457-.236-9.606-.709-2.362-.315-5.984-.787-6.929 1.339-.315.709-.315 1.732.787 2.441 2.126 1.339 11.575-2.283 14.803-.866 2.913 1.339 2.913 3.465 2.52 4.882-.787 2.677-4.331 3.228-4.331 3.228s1.732-.945 1.26-2.598c-.236-.787-.787-1.024-2.677-.866-4.016.472-8.898 2.362-12.126 1.024-1.654-.709-2.835-2.677-2.756-4.724.079-2.835 3.543-4.016 3.543-4.016v-10.63c-.079-.394-1.89-.315-2.362.472-.63 1.181.787 1.732.787 1.732s-1.102.158-2.047-.866c-.472-.472-1.417-2.283-.157-4.016 1.024-1.417 2.283-1.654 3.858-1.811z"/></g></symbol></svg>